<svg width="36" height="38" viewBox="0 0 120 150" version="1.1" xmlns="http://www.w3.org/2000/svg" xmlns:xlink="http://www.w3.org/1999/xlink" xml:space="preserve" xmlns:serif="http://www.serif.com/" style="fill-rule:evenodd;clip-rule:evenodd;stroke-linejoin:round;stroke-miterlimit:2;"><g id="innova_Pico_xA0_Imagen"><path d="M76.489,76.925c7.4,-17.34 14.41,-33.77 21.42,-50.2c2.1,-4.913 6.18,-7.233 12.24,-6.96c-11.19,26.33 -22.27,52.4 -33.87,79.69c-9.9,-23.18 -19.34,-45.28 -29.19,-68.33c-5.49,12.85 -10.58,24.76 -15.67,36.69c-1.89,4.43 -3.75,8.87 -5.64,13.29c-2.2,5.153 -6.317,7.527 -12.35,7.12c11.15,-26.21 22.22,-52.27 33.85,-79.6c9.91,23.17 19.4,45.35 29.21,68.3Z" style="fill:#c6c6c6;fill-rule:nonzero;"/><path d="M47.289,50.525c9.96,23.31 19.41,45.43 29.19,68.34c7.4,-17.35 14.41,-33.78 21.42,-50.21c2.1,-4.913 6.183,-7.237 12.25,-6.97c-11.19,26.33 -22.27,52.4 -33.87,79.69c-9.9,-23.18 -19.34,-45.27 -29.19,-68.33c-5.49,12.85 -10.58,24.76 -15.67,36.68c-1.89,4.43 -3.75,8.87 -5.64,13.29c-2.2,5.153 -6.317,7.53 -12.35,7.13c11.14,-26.21 22.22,-52.26 33.85,-79.63l0.01,0.01Z" style="fill:#c6c6c6;fill-rule:nonzero;"/></g></svg>