<svg width="100" height="38" viewBox="0 0 357 137" version="1.1" xmlns="http://www.w3.org/2000/svg" xmlns:xlink="http://www.w3.org/1999/xlink" xml:space="preserve" xmlns:serif="http://www.serif.com/" style="fill-rule:evenodd;clip-rule:evenodd;stroke-linejoin:round;stroke-miterlimit:2;"><g id="innova_Pico_xA0_Imagen"><g><path d="M356.88,106.948c0.003,-0.003 0.007,-0.005 0.01,-0.008l-0.01,0.01l0,-0.002Zm0,-0c-1.556,1.179 -2.995,2.809 -5.26,1.562c-1.93,-1.06 -1.92,-2.92 -1.9,-4.78c0.03,-2.58 0,-5.17 0,-8.07c-21.76,16.95 -39.53,17.42 -53.36,1.74c-13.02,-14.77 -12.5,-37.24 1.19,-51.11c14.29,-14.47 33.08,-13.53 52.16,3.06c0,-3 0.01,-5.56 0,-8.12c-0.01,-1.85 -0.09,-3.74 1.89,-4.77c2.25,-1.17 3.74,0.31 5.28,1.59l0,68.898Zm-35.16,-63.878l0,-0.01c-15.07,0.1 -27.72,13.63 -27.61,29.55c0.11,15.96 12.95,29.32 28.02,29.16c15.19,-0.16 27.76,-13.65 27.57,-29.57c-0.19,-16.09 -12.81,-29.23 -27.98,-29.13Z" style="fill:#c6c6c6;"/><path d="M0.11,37.05c1.6,-1.08 3,-2.74 5.3,-1.43c1.97,1.12 1.86,2.95 1.86,4.79l0,63.3c0,1.87 0.03,3.71 -1.9,4.78c-2.27,1.26 -3.71,-0.35 -5.27,-1.55l0,-69.89l0.01,-0Z" style="fill:#c6c6c6;fill-rule:nonzero;"/><path d="M85.27,72.43c7.4,-17.34 14.41,-33.77 21.42,-50.2c2.1,-4.913 6.18,-7.233 12.24,-6.96c-11.19,26.33 -22.27,52.4 -33.87,79.69c-9.9,-23.18 -19.34,-45.28 -29.19,-68.33c-5.49,12.85 -10.58,24.76 -15.67,36.69c-1.89,4.43 -3.75,8.87 -5.64,13.29c-2.2,5.153 -6.317,7.527 -12.35,7.12c11.15,-26.21 22.22,-52.27 33.85,-79.6c9.91,23.17 19.4,45.35 29.21,68.3Z" style="fill:#c6c6c6;fill-rule:nonzero;"/><path d="M56.07,46.03c9.96,23.31 19.41,45.43 29.19,68.34c7.4,-17.35 14.41,-33.78 21.42,-50.21c2.1,-4.913 6.183,-7.237 12.25,-6.97c-11.19,26.33 -22.27,52.4 -33.87,79.69c-9.9,-23.18 -19.34,-45.27 -29.19,-68.33c-5.49,12.85 -10.58,24.76 -15.67,36.68c-1.89,4.43 -3.75,8.87 -5.64,13.29c-2.2,5.153 -6.317,7.53 -12.35,7.13c11.14,-26.21 22.22,-52.26 33.85,-79.63l0.01,0.01Z" style="fill:#c6c6c6;fill-rule:nonzero;"/><path d="M203.14,72.38c0.02,20.13 -15.36,36.48 -34.39,36.56c-19.29,0.08 -34.92,-16.32 -34.88,-36.6c0.04,-20.03 15.59,-36.3 34.67,-36.3c19.11,0 34.57,16.25 34.6,36.34Zm-62.11,0.04c-0.01,15.82 12.36,29.16 27.24,29.35c14.97,0.19 27.74,-13.34 27.71,-29.37c-0.03,-15.85 -12.43,-29.21 -27.24,-29.33c-15.03,-0.13 -27.69,13.29 -27.71,29.35Z" style="fill:#c6c6c6;"/><path d="M244.55,96c6.96,-16.4 13.62,-32.1 20.27,-47.79c1.03,-2.44 2.02,-4.9 3.08,-7.33c1.11,-2.54 1.95,-6.02 5.81,-4.26c3.45,1.57 1.8,4.43 0.76,6.87c-8.31,19.7 -16.62,39.39 -24.94,59.09c-0.45,1.07 -0.99,2.11 -1.38,3.19c-0.6,1.66 -1.4,3.03 -3.4,3.15c-2.25,0.12 -3.17,-1.38 -3.92,-3.16c-2.89,-6.88 -5.83,-13.73 -8.72,-20.6c-5.66,-13.44 -11.31,-26.89 -16.96,-40.33c-0.26,-0.61 -0.49,-1.23 -0.75,-1.84c-1.01,-2.4 -1.98,-5.03 1.11,-6.43c3.2,-1.46 4.37,1.15 5.38,3.53c2.39,5.65 4.75,11.31 7.14,16.95c5.4,12.76 10.81,25.51 16.52,38.98l0,-0.02Z" style="fill:#c6c6c6;fill-rule:nonzero;"/></g></g></svg>